# xmcd
#
# Track frame offsets: 
#        150
#        14861
#        29086
#        53124
#        64170
#        89318
#        102119
#        122678
#        133077
#        146630
#        159924
#        183928
#
# Disc length: 2508 seconds
#
# Revision: 1
# Processed by: cddbd v1.5.1PL0 Copyright (c) Steve Scherf et al.
# Submitted via: ExactAudioCopy v0.95b3
#
DISCID=a809ca0c
DTITLE=Dzem - Akustycznie (Suplement)
DYEAR=1994
DGENRE=blues
TTITLE0=Harley Moj
TTITLE1=Kiepska Gra
TTITLE2=Autsajder
TTITLE3=Po Co?
TTITLE4=Naiwne Pytania
TTITLE5=Cala W Trawie
TTITLE6=Usmiech Smierci
TTITLE7=Koszmarna Noc
TTITLE8=Czlowieku Co Sie Z Toba Dzieje
TTITLE9=Sen O Victorii
TTITLE10=Whisky
TTITLE11=Modlitwa III - pozwol mi
EXTD=
EXTT0=
EXTT1=
EXTT2=
EXTT3=
EXTT4=
EXTT5=
EXTT6=
EXTT7=
EXTT8=
EXTT9=
EXTT10=
EXTT11=
PLAYORDER=
